<svg fill="#000000" xmlns="http://www.w3.org/2000/svg"  viewBox="0 0 32 32" width="32px" height="32px"><path d="M 7.96875 5 C 8.222656 5.359375 8.40625 5.515625 8.40625 6.34375 L 8.40625 23.4375 C 8.40625 24.265625 8.035156 24.671875 7.78125 25.03125 L 10.84375 25.03125 C 10.589844 24.671875 10.21875 24.265625 10.21875 23.4375 L 10.21875 17.15625 C 12.285156 17.125 14.023438 16.769531 15.40625 16.21875 C 17.515625 18.476563 17.777344 21.785156 17.8125 22.6875 C 17.847656 23.589844 17.378906 24.382813 16.65625 25.03125 L 20.65625 25.03125 C 20.042969 24.707031 19.816406 23.828125 19.78125 23 C 19.382813 19.25 17.285156 16.320313 16.78125 15.5625 C 19.15625 14.136719 20.21875 11.953125 20.21875 9.9375 C 20.21875 6.582031 17.25 5 14.6875 5 Z M 10.21875 6.1875 L 14.1875 6.1875 C 16.929688 6.1875 17.847656 7.910156 17.8125 9.75 C 17.632813 14.835938 12.5625 15.59375 10.21875 15.59375 Z M 11.5625 6.9375 C 11.816406 7.296875 12 7.421875 12 8.25 L 12 15.03125 C 12.59375 14.976563 13.429688 14.707031 13.84375 14.5625 L 13.84375 8.125 L 17.09375 8.125 C 16.914063 7.675781 16.421875 7.15625 16.0625 6.9375 Z M 19.90625 7.15625 C 19.90625 7.15625 20.585938 8.355469 20.6875 9.21875 C 20.6875 9.21875 22.183594 10.886719 21.03125 13.78125 C 20.140625 16.019531 18.09375 16.75 18.09375 16.75 L 18.8125 18.28125 C 18.8125 18.28125 18.914063 18.25 19.09375 18.1875 C 19.546875 18.703125 21.347656 20.9375 21.4375 24.46875 C 21.4375 24.472656 21.578125 25.917969 20.28125 26.9375 L 24.21875 26.9375 C 24.21875 26.9375 23.703125 26.632813 23.5 25.71875 C 23.296875 24.804688 23.367188 23.1875 22.5 21.25 C 21.804688 19.691406 20.816406 18.097656 20.46875 17.53125 C 21.519531 16.886719 22.824219 15.742188 23.53125 13.84375 C 24.855469 10.28125 22.300781 7.617188 19.90625 7.15625 Z M 13.84375 17.1875 C 13.589844 17.277344 12.46875 17.445313 12 17.5 L 12 25.40625 C 12 26.234375 11.628906 26.640625 11.375 27 L 14.4375 27 C 14.183594 26.640625 13.84375 26.234375 13.84375 25.40625 L 13.84375 19.125 C 14.792969 19.109375 15.691406 19.042969 16.5 18.90625 C 16.390625 18.539063 16.011719 17.765625 15.8125 17.4375 C 15.074219 17.5625 14.386719 17.59375 13.84375 17.59375 Z"/></svg>